<?xml version="1.0" encoding="iso-8859-1"?>
<!-- Generator: Adobe Illustrator 19.0.0, SVG Export Plug-In . SVG Version: 6.00 Build 0)  -->
<svg version="1.1" id="Capa_1" xmlns="http://www.w3.org/2000/svg" xmlns:xlink="http://www.w3.org/1999/xlink" x="0px" y="0px"
	 viewBox="0 0 512 512" style="enable-background:new 0 0 512 512;" xml:space="preserve">
<path style="fill:#5EA79C;" d="M10,336.631v53.22c0.866-0.043,1.34-0.05,1.34-0.05s81.094-8.244,81.094,56.153
	c0,64.398,0.21,54.961,0.21,54.961h82.225c0,0,0,10.033,0-54.961c0-75.211,162.26-79.225,162.26,0c0,64.994,0,54.961,0,54.961
	h82.225c0,0,0.21,9.438,0.21-54.961c0-64.397,81.094-56.153,81.094-56.153s0.474,0.007,1.34,0.05v-53.22H10z"/>
<rect x="10" y="290.22" style="fill:#EFEFEF;" width="492" height="46.41"/>
<g>
	<path style="fill:#5EA79C;" d="M108.99,290.224v-2.75c0,0,10-225.75,27-225.75c19,0,22.33,227.5,22.33,227.5v1H108.99z"/>
	<path style="fill:#5EA79C;" d="M350.99,290.224v-2.75c0,0,10-225.75,27-225.75c19,0,22.33,227.5,22.33,227.5v1H350.99z"/>
</g>
<path style="fill:#EF584F;" d="M256,102.71c0.173-0.185,7.576-7.848,15.7-16.263c8.431-8.733,17.639-18.276,20.348-21.112
	c8.119-8.498,15.607-18.769,15.607-28.422c0-15.978-9.593-26.386-25.055-26.386c-14.543,0-22.88,12.002-26.6,19.271
	c-3.72-7.269-12.057-19.271-26.6-19.271c-15.462,0-25.055,10.408-25.055,26.386c0,9.653,7.489,19.924,15.607,28.422
	c2.709,2.836,11.917,12.379,20.348,21.112C248.424,94.861,255.827,102.524,256,102.71z"/>
<path d="M254.139,155.493h-0.08c-5.48,0-9.96,4.45-10,9.931c-0.04,5.51,4.42,10.029,9.93,10.069h0.07c5.48,0,9.96-4.46,10-9.93
	c0.02-2.67-1.01-5.19-2.88-7.09C259.31,156.574,256.81,155.514,254.139,155.493z"/>
<path d="M233.106,93.392l8.639,8.948c3.884,4.022,6.658,6.895,6.99,7.242c1.888,1.997,4.489,3.157,7.238,3.157
	c2.77,0,5.389-1.12,7.28-3.145c0.273-0.286,3.068-3.18,7.002-7.254l8.639-8.947c11.486-11.897,18.153-18.815,20.384-21.15
	c12.366-12.943,18.377-24.5,18.377-35.33c0-21.764-14.087-36.386-35.055-36.386c-10.122,0-19.239,4.14-26.6,11.897
	c-7.361-7.757-16.478-11.897-26.6-11.897c-20.968,0-35.055,14.622-35.055,36.386c0,10.831,6.011,22.387,18.377,35.33
	C214.953,74.577,221.62,81.495,233.106,93.392z M229.4,20.527c8.779,0,14.47,7.519,17.698,13.827
	c1.71,3.342,5.148,5.444,8.902,5.444c3.754,0,7.192-2.103,8.902-5.444c3.228-6.308,8.919-13.827,17.698-13.827
	c13.099,0,15.055,10.266,15.055,16.386c0,3.017-1.668,9.823-12.838,21.514c-2.176,2.278-9.01,9.368-20.313,21.075L256,88.31
	l-8.505-8.809c-11.302-11.707-18.136-18.797-20.312-21.075c-11.17-11.691-12.838-18.497-12.838-21.514
	C214.345,30.793,216.301,20.527,229.4,20.527z"/>
<path d="M501.999,280.223h-91.844c-0.372-18.255-1.449-61.998-3.892-105.312c-0.822-14.577-1.727-27.867-2.709-39.811
	c37.286,30.969,94.429,36.088,97.629,36.351c0.278,0.022,0.553,0.034,0.827,0.034c5.153,0,9.527-3.958,9.956-9.185
	c0.451-5.505-3.646-10.332-9.151-10.783c-0.838-0.068-77.259-6.855-102.749-50.617c-0.22-1.718-0.442-3.403-0.668-5.015
	c-1.664-11.892-3.441-20.828-5.434-27.32c-1.414-4.605-5.169-16.841-15.974-16.841c-11.465,0-16.159,13.078-20.478,38.845
	c-3.745,4.903-11.203,14.128-21.373,24.065c-10.71,10.489-27.6,24.779-47.26,33.25c-5.06,2.189-7.39,8.09-5.21,13.149
	c1.59,3.67,5.19,6.04,9.19,6.04c1.36,0,2.7-0.28,3.96-0.83c18-7.81,35.94-20.359,53.3-37.31c0.867-0.848,1.709-1.689,2.539-2.524
	c-1.547,13.794-3.055,29.61-4.51,47.373c-3.656,44.614-6.009,89.692-6.827,106.44H168.156c-0.372-18.255-1.449-61.998-3.892-105.312
	c-1.081-19.167-2.306-36.098-3.661-50.679c16.078,18.265,33.071,31.918,50.587,40.592c1.39,0.681,2.88,1.03,4.42,1.03
	c3.84,0,7.28-2.14,8.98-5.58c2.43-4.94,0.39-10.95-4.55-13.39c-20.38-10.011-37.15-27.06-47.63-39.591
	c-6.04-7.199-10.67-13.68-13.49-17.859c-1.498-2.201-2.623-3.963-3.344-5.124c-1.133-6.353-2.327-11.56-3.612-15.745
	c-1.414-4.605-5.169-16.841-15.974-16.841c-12.168,0-16.709,14.724-21.269,43.72c-0.157,0.997-0.313,2.026-0.469,3.064
	c-24.029,45.779-103.222,52.939-104.076,53.01c-5.5,0.454-9.593,5.28-9.143,10.782c0.428,5.227,4.803,9.185,9.956,9.185
	c0.274,0,0.55-0.012,0.827-0.034c3.208-0.263,60.648-5.407,97.926-36.596c-1.227,11.701-2.427,24.692-3.593,38.928
	c-3.656,44.614-6.009,89.692-6.827,106.44H10c-5.523,0-10,4.478-10,10v99.628c0,2.738,1.123,5.356,3.106,7.244
	s4.656,2.89,7.389,2.743c0.583-0.028,1.568-0.06,1.856-0.089c10.362-1.05,40.899-0.491,57.555,14.558
	c8.43,7.616,12.528,17.969,12.528,31.647c0,21.605,0.023,37.233,0.07,46.447c0.02,3.871,0.084,8.721,0.095,9.011
	c0.227,6.418,5.273,9.936,9.907,9.987c1.051,0.004,81.206,0.074,82.364,0.074c5.523,0,10-4.478,10-10v-55.519
	c0-31.462,36.578-47.923,72.71-47.923c19.125,0,36.658,4.512,49.369,12.705c13.391,8.631,20.181,20.48,20.181,35.218v55.519
	c0,5.522,4.477,10,10,10c1.158,0,81.302-0.091,82.364-0.074c4.633-0.052,9.679-3.569,9.906-9.986c0.01-0.29,0.022-0.769,0.034-1.522
	c0.02-1.325,0.042-3.618,0.061-7.488c0.047-9.215,0.07-24.843,0.07-46.448c0-13.654,4.082-23.992,12.481-31.605
	c19.938-18.072,57.243-14.635,57.601-14.6c0.275,0.028,1.272,0.061,1.856,0.089c2.735,0.15,5.406-0.855,7.389-2.743
	s3.106-4.506,3.106-7.244v-99.628C511.999,284.7,507.522,280.223,501.999,280.223z M427.991,300.223v26.408h-40.667v-26.408H427.991
	z M367.347,184.605c3.99-51.122,7.814-79.684,10.76-95.606c2.724,15.939,6.006,44.691,8.697,96.429
	c2.053,39.479,2.998,77.8,3.347,94.796h-28.806C362.136,264.114,364.196,224.968,367.347,184.605z M326.657,300.223h40.667v26.408
	h-40.667V300.223z M265.99,300.223h40.667v26.408H265.99V300.223z M205.323,300.223h40.667v26.408h-40.667V300.223z
	 M185.323,300.223v26.408h-40.667v-26.408H185.323z M125.347,184.605c3.99-51.122,7.814-79.684,10.76-95.606
	c2.724,15.939,6.006,44.691,8.697,96.429c2.054,39.479,2.998,77.8,3.347,94.796h-28.806
	C120.137,264.109,122.197,224.962,125.347,184.605z M83.989,300.223h40.667v26.408H83.989V300.223z M20,300.223h43.989v26.408H20
	V300.223z M491.999,379.451c-0.024,0-0.049,0-0.072,0c-14.982,0-43.87,2.512-63.242,20.015
	c-12.688,11.463-19.121,27.104-19.121,46.488c0,23.825-0.029,37.321-0.063,44.961h-62.372v-44.961
	c0-21.663-10.147-39.654-29.345-52.028c-15.901-10.25-37.283-15.895-60.204-15.895c-46.071,0-92.71,23.331-92.71,67.923v44.961
	h-62.372c-0.034-7.64-0.063-21.134-0.063-44.961c0-19.384-6.433-35.025-19.121-46.488c-19.374-17.504-48.261-20.015-63.242-20.015
	c-0.023,0-0.048,0-0.072,0v-32.82h471.999V379.451z M491.999,326.631H447.99v-26.408h44.009V326.631z"/>
<g>
</g>
<g>
</g>
<g>
</g>
<g>
</g>
<g>
</g>
<g>
</g>
<g>
</g>
<g>
</g>
<g>
</g>
<g>
</g>
<g>
</g>
<g>
</g>
<g>
</g>
<g>
</g>
<g>
</g>
</svg>
